<svg width="49" height="32" viewBox="0 0 49 32" fill="none" xmlns="http://www.w3.org/2000/svg">
<g clip-path="url(#clip0_8_2951)">
<mask id="mask0_8_2951" style="mask-type:luminance" maskUnits="userSpaceOnUse" x="0" y="0" width="49" height="32">
<path d="M49 0H0V32H49V0Z" fill="white"/>
</mask>
<g mask="url(#mask0_8_2951)">
<path fill-rule="evenodd" clip-rule="evenodd" d="M47.5257 18.1167C48.6911 16.9462 48.6911 15.0538 47.5257 13.8833L34.6059 0.906997C33.4333 -0.270758 31.5266 -0.270757 30.354 0.906998L26.9729 4.30284C25.8075 5.47335 25.8075 7.36571 26.9729 8.53621L32.2968 13.8833C33.4622 15.0538 33.4622 16.9462 32.2968 18.1167L26.9729 23.4638C25.8075 24.6343 25.8075 26.5267 26.9729 27.6972L30.354 31.093C31.5266 32.2708 33.4333 32.2708 34.6059 31.093L47.5257 18.1167Z" fill="black" fill-opacity="0.25"/>
<path fill-rule="evenodd" clip-rule="evenodd" d="M30.7982 17.9825C31.9636 16.812 31.9636 14.9196 30.7982 13.7491L22.0078 4.92019C20.8351 3.74243 18.9285 3.74243 17.7559 4.92019L15.7201 6.96488C14.5547 8.13539 14.5547 10.0277 15.7201 11.1982L18.2593 13.7485C19.4247 14.919 19.4247 16.8114 18.2593 17.9819L15.7195 20.5328C14.5541 21.7033 14.5541 23.5956 15.7195 24.7661L17.7559 26.8114C18.9285 27.9892 20.8351 27.9892 22.0078 26.8114L30.7982 17.9825Z" fill="black" fill-opacity="0.5"/>
<path d="M16.7193 13.9018L11.5347 8.69456C10.3656 7.52043 8.47031 7.52043 7.3013 8.69456L2.11669 13.9018C0.947677 15.076 0.947677 16.9796 2.11669 18.1537L7.3013 23.361C8.47031 24.5352 10.3656 24.5352 11.5347 23.361L16.7193 18.1537C17.8883 16.9796 17.8883 15.076 16.7193 13.9018Z" fill="black"/>
</g>
</g>
<defs>
<clipPath id="clip0_8_2951">
<rect width="49" height="32" fill="white"/>
</clipPath>
</defs>
</svg>
