<svg width="49" height="32" viewBox="0 0 49 32" fill="none" xmlns="http://www.w3.org/2000/svg">
<path fill-rule="evenodd" clip-rule="evenodd" d="M47.5257 18.1167C48.6911 16.9462 48.6911 15.0538 47.5257 13.8833L34.6059 0.906965C33.4333 -0.27079 31.5266 -0.270789 30.354 0.906966L26.9729 4.30281C25.8075 5.47332 25.8075 7.36568 26.9729 8.53618L32.2968 13.8833C33.4622 15.0538 33.4622 16.9462 32.2968 18.1167L26.9729 23.4638C25.8075 24.6343 25.8075 26.5267 26.9729 27.6972L30.354 31.093C31.5266 32.2708 33.4333 32.2708 34.6059 31.093L47.5257 18.1167Z" fill="#109DF4" fill-opacity="0.25"/>
<path fill-rule="evenodd" clip-rule="evenodd" d="M30.7982 17.9824C31.9636 16.8119 31.9636 14.9195 30.7982 13.749L22.0078 4.92007C20.8351 3.74231 18.9285 3.74231 17.7559 4.92007L15.7201 6.96477C14.5547 8.13527 14.5547 10.0276 15.7201 11.1981L18.2593 13.7484C19.4247 14.9189 19.4247 16.8113 18.2593 17.9818L15.7195 20.5327C14.5541 21.7032 14.5541 23.5955 15.7195 24.766L17.7559 26.8113C18.9285 27.9891 20.8351 27.9891 22.0078 26.8113L30.7982 17.9824Z" fill="#109DF4" fill-opacity="0.5"/>
<rect width="13.3482" height="13.3482" rx="3" transform="matrix(0.705561 0.708649 -0.705561 0.708649 9.41797 6.5685)" fill="#109DF4"/>
</svg>
