<svg width="107" height="107" viewBox="0 0 107 107" fill="none" xmlns="http://www.w3.org/2000/svg">
<path d="M53.5244 98.6292C83.0308 98.6292 98.6295 73.6058 98.6295 54.6155C98.6295 37.4038 87.0746 9.06687 53.424 8.37036C18.2142 10.9119 8.3707 38.6639 8.3707 54.6155C11.6247 89.4818 37.2468 97.1182 53.5244 98.6292Z" fill="black"/>
<path fill-rule="evenodd" clip-rule="evenodd" d="M53.5 8.37036C78.4243 8.37036 98.6295 28.5755 98.6295 53.4998C98.6295 78.4242 78.4243 98.6293 53.5 98.6293C40.1695 98.6293 28.1891 92.8497 19.9277 83.6594C25.6413 83.4393 32.0229 81.9474 39.0735 79.1841C43.8476 77.2977 47.5824 75.4889 50.2764 73.7567C51.8164 76.7588 53.6647 78.8569 55.8198 80.0504C57.5522 80.9737 59.7073 81.4361 62.2868 81.4361C64.5196 81.4361 66.4635 80.1076 68.1194 77.4519C70.0823 74.3337 71.0644 70.0601 71.0644 64.6326C71.0644 62.7462 70.7083 56.9149 69.9951 47.1362C69.283 37.3596 68.927 32.4123 68.927 32.2969C68.927 31.8344 69.0237 31.7374 69.2162 32.0076C70.8324 33.8163 71.6415 34.2977 71.6415 33.4506C71.6415 33.2202 71.565 32.8355 71.4108 32.2969C71.1053 31.2128 67.8427 22.537 67.3106 21.4404C67.0386 20.8803 66.8447 20.8079 66.5603 21.3832C65.5209 23.8465 65.0013 25.4247 65.0013 26.1178C65.5782 27.2731 65.8674 28.7543 65.8674 30.5645C65.8674 32.4889 66.2616 39.0133 67.05 50.1397C67.8398 61.2646 68.2341 67.6156 68.2341 69.194C68.2341 71.7733 67.9844 73.2752 67.4838 73.6979C65.8278 75.0838 64.0956 75.7769 62.287 75.7769C58.3217 75.7769 55.3768 74.4687 53.452 71.851C56.2237 70.0411 57.6094 66.9625 57.6094 62.6112C57.6094 60.8788 57.0898 59.0702 56.0505 57.1836C54.9729 55.1825 53.8176 54.1814 52.5859 54.1814C51.3541 54.1814 50.2192 55.1049 49.1798 56.9531C48.0245 58.9542 47.4474 61.303 47.4474 63.997C47.4474 65.3065 47.9085 67.2121 48.8334 69.7138C47.4979 70.511 45.9662 71.303 44.2386 72.0901L43.0977 67.0335L45.0861 66.5849L44.6911 64.8339L42.7025 65.2827L42.532 64.526C42.4473 64.1508 42.4676 63.8437 42.5934 63.6052C42.7225 63.3613 42.9977 63.1921 43.4186 63.0971C43.5978 63.0565 43.7643 63.0366 43.9177 63.037C44.0702 63.0333 44.1975 63.035 44.3001 63.0427L44.3552 61.1901C44.1979 61.173 43.9602 61.1676 43.6418 61.1738C43.3234 61.1799 42.9683 61.2272 42.5763 61.3155C42.0219 61.4407 41.5414 61.6608 41.1351 61.9759C40.7287 62.2911 40.4383 62.694 40.2642 63.1844C40.0942 63.674 40.0823 64.242 40.2281 64.888L40.4326 65.7947L39.0132 66.1152L39.4082 67.866L40.8276 67.5457L42.0661 73.0344C41.1669 73.4079 40.2231 73.7803 39.2344 74.1515L37.4982 66.4568L35.2346 66.9676L37.03 74.9248C36.263 75.1797 35.5016 75.4188 34.7455 75.6423L32.1845 64.2912L29.9209 64.802L32.5065 76.2622C31.7441 76.459 30.9875 76.6392 30.2366 76.8032L29.0838 71.6938C28.9399 71.056 28.7031 70.5507 28.3738 70.1782C28.0485 69.8048 27.6686 69.5379 27.2336 69.3776C26.7979 69.213 26.3384 69.1283 25.8554 69.1235C25.3724 69.1185 24.8996 69.1682 24.4368 69.2727C23.7656 69.424 23.1755 69.6624 22.6662 69.9877C22.1559 70.3086 21.7536 70.7105 21.4594 71.1931C21.1644 71.6715 20.9993 72.2213 20.9641 72.8425L23.1455 72.6659C23.1837 72.311 23.3362 71.9766 23.6026 71.6623C23.8731 71.3471 24.2856 71.127 24.8401 71.0018C25.3653 70.8833 25.7968 70.9219 26.1344 71.1174C26.472 71.3127 26.6942 71.6459 26.8004 72.117L26.8089 72.1545C26.8578 72.3713 26.8127 72.5503 26.6737 72.691C26.5377 72.8268 26.3003 72.9593 25.9616 73.0883C25.6217 73.2132 25.1769 73.3683 24.6273 73.5539C24.1718 73.7092 23.7377 73.8924 23.3254 74.1039C22.9164 74.3099 22.5627 74.5584 22.2646 74.8492C21.9666 75.1397 21.7574 75.4848 21.6374 75.8845C21.5172 76.2839 21.5183 76.7546 21.6407 77.2965C21.6952 77.5383 21.767 77.7605 21.8561 77.9633C21.0434 78.0069 20.2384 78.0288 19.441 78.0288C17.9932 78.0288 16.633 77.8976 15.3602 77.6355C10.9336 70.6554 8.37048 62.3769 8.37048 53.4998C8.37048 28.5755 28.5756 8.37036 53.5 8.37036ZM77.5313 21.0366C77.4549 21.0366 77.3389 21.1908 77.1847 21.4977C76.1454 23.9625 75.6257 25.5217 75.6257 26.175C76.2041 27.3303 76.4918 28.8131 76.4918 30.6217C76.4918 32.1999 76.9542 39.5043 77.8778 52.5348C78.8024 65.5656 79.2635 72.986 79.2635 74.7962C79.2635 76.7972 79.1681 78.5484 78.9757 80.0504C78.8599 81.1279 78.8407 81.84 78.9171 82.1865C78.9566 82.4947 79.1095 82.4183 79.3795 81.9558C79.5337 81.6476 79.7642 81.1661 80.0724 80.5126C81.3806 77.2022 82.0353 73.3514 82.0353 68.9633C82.0353 67.5392 81.6222 61.1296 80.7941 49.7345C79.9662 38.3394 79.5527 32.5655 79.5527 32.4113C79.5527 31.9107 79.6495 31.7962 79.842 32.0649C81.4582 33.8749 82.2672 34.3755 82.2672 33.5666C82.2672 33.2966 82.1895 32.8928 82.0353 32.3541C81.843 31.6612 81.1691 29.8128 80.0152 26.8107C78.9363 23.9229 78.2434 22.1525 77.9363 21.4977C77.7823 21.1908 77.6473 21.0366 77.5313 21.0366ZM36.518 63.0441C36.209 62.8597 35.8734 62.8082 35.5106 62.8902C35.152 62.9711 34.8709 63.1614 34.667 63.4616C34.462 63.7575 34.3983 64.0765 34.4755 64.4183C34.5517 64.7559 34.7463 65.0165 35.0593 65.2001C35.3714 65.3793 35.7067 65.4284 36.0652 65.3476C36.4278 65.2658 36.7095 65.0774 36.9102 64.7824C37.1141 64.4823 37.1779 64.1635 37.1018 63.8257C37.0246 63.4838 36.8301 63.2234 36.518 63.0441ZM49.8228 43.1473C49.707 43.1473 49.5908 43.2633 49.4763 43.4938L47.6281 47.1904C47.5517 47.3446 47.5517 47.459 47.6281 47.5368C49.1681 48.4601 50.6303 49.4614 52.0161 50.5392C52.1703 50.655 52.3245 50.5774 52.4787 50.3085C53.7485 48.3061 54.3841 46.9981 54.3841 46.3815C54.3841 46.1893 53.6722 45.6026 52.2481 44.6205C50.8227 43.6386 50.0154 43.1475 49.8228 43.1473Z" fill="white"/>
<path d="M26.9336 75.7381C26.9836 75.9602 26.9724 76.1782 26.8999 76.3922C26.8301 76.6057 26.7036 76.7934 26.5205 76.9555C26.3947 77.0649 26.245 77.1518 26.0715 77.2163C25.804 77.2541 25.5377 77.2883 25.2726 77.319C25.1924 77.3063 25.1161 77.2853 25.0439 77.2558C24.8232 77.1656 24.6832 76.9898 24.6244 76.7286C24.5831 76.5458 24.5978 76.3859 24.6686 76.2492C24.7387 76.1097 24.85 75.9886 25.0025 75.8855C25.1549 75.7825 25.3337 75.6927 25.5388 75.6163C25.6299 75.582 25.7375 75.5412 25.8613 75.4941C25.9853 75.4469 26.1098 75.3968 26.2351 75.3439C26.3604 75.2909 26.4718 75.2369 26.5692 75.182C26.6693 75.1265 26.7374 75.0754 26.7735 75.0288L26.9336 75.7381Z" fill="url(#paint0_linear_230_13433)"/>
<path d="M52.1154 59.0596C52.8087 59.0596 53.5757 59.7711 54.4153 61.1952C55.2185 62.5094 55.6196 63.5313 55.6196 64.2621C55.6196 64.5545 55.0903 65.1016 54.0325 65.9047C53.1192 66.6344 52.2979 67.1632 51.5684 67.492C51.1661 66.9447 50.756 66.0691 50.3355 64.8636C49.6458 62.8839 49.324 61.5903 50.4728 60.0725C50.9836 59.3972 51.5319 59.0596 52.1154 59.0596Z" fill="url(#paint1_linear_230_13433)"/>
<defs>
<linearGradient id="paint0_linear_230_13433" x1="43.2272" y1="33.8671" x2="43.2272" y2="90.4292" gradientUnits="userSpaceOnUse">
<stop stop-color="white"/>
<stop offset="1" stop-color="white"/>
</linearGradient>
<linearGradient id="paint1_linear_230_13433" x1="53.6938" y1="10.3066" x2="53.6938" y2="95.8979" gradientUnits="userSpaceOnUse">
<stop stop-color="white"/>
<stop offset="1" stop-color="white"/>
</linearGradient>
</defs>
</svg>
