<svg width="107" height="107" viewBox="0 0 107 107" fill="none" xmlns="http://www.w3.org/2000/svg">
<rect x="53.5" y="0.467041" width="75" height="75" rx="24" transform="rotate(45 53.5 0.467041)" fill="url(#paint0_linear_536_57755)"/>
<path fill-rule="evenodd" clip-rule="evenodd" d="M53.5 30C66.4787 30 77 40.5213 77 53.5C77 66.4787 66.4787 77 53.5 77C46.5585 77 40.32 73.9904 36.0181 69.2048C38.9933 69.0902 42.3164 68.3133 45.9878 66.8744C48.4738 65.8921 50.4186 64.9502 51.8214 64.0482C52.6233 65.6115 53.5858 66.704 54.708 67.3255C55.6101 67.8063 56.7323 68.0471 58.0755 68.0471C59.2382 68.0471 60.2504 67.3553 61.1127 65.9724C62.1348 64.3487 62.6462 62.1233 62.6462 59.2971C62.6462 58.3148 62.4608 55.2783 62.0894 50.1863C61.7186 45.0954 61.5332 42.5192 61.5332 42.4591C61.5332 42.2183 61.5836 42.1678 61.6838 42.3085C62.5254 43.2503 62.9467 43.501 62.9467 43.0599C62.9467 42.9399 62.9069 42.7396 62.8266 42.4591C62.6675 41.8946 60.9686 37.3769 60.6915 36.8059C60.5499 36.5142 60.4489 36.4765 60.3008 36.7761C59.7596 38.0588 59.489 38.8806 59.489 39.2415C59.7894 39.8431 59.94 40.6144 59.94 41.557C59.94 42.5591 60.1453 45.9565 60.5558 51.7503C60.9671 57.5433 61.1724 60.8504 61.1724 61.6723C61.1724 63.0154 61.0424 63.7975 60.7817 64.0176C59.9194 64.7393 59.0174 65.1002 58.0756 65.1002C56.0108 65.1002 54.4773 64.419 53.475 63.0559C54.9183 62.1134 55.6399 60.5103 55.6399 58.2445C55.6399 57.3424 55.3693 56.4006 54.8281 55.4182C54.267 54.3762 53.6654 53.8549 53.024 53.8549C52.3826 53.8549 51.7916 54.3358 51.2504 55.2982C50.6488 56.3402 50.3483 57.5633 50.3483 58.9661C50.3483 59.648 50.5884 60.6403 51.07 61.943C50.3746 62.3581 49.577 62.7705 48.6774 63.1804L48.0833 60.5473L49.1187 60.3137L48.913 59.4019L47.8775 59.6356L47.7887 59.2416C47.7446 59.0462 47.7552 58.8863 47.8207 58.7621C47.8879 58.6351 48.0312 58.547 48.2504 58.4975C48.3437 58.4764 48.4304 58.466 48.5103 58.4662C48.5897 58.4643 48.656 58.4652 48.7094 58.4692L48.7381 57.5045C48.6562 57.4956 48.5324 57.4928 48.3666 57.496C48.2008 57.4992 48.0159 57.5238 47.8118 57.5698C47.5231 57.635 47.2729 57.7496 47.0613 57.9137C46.8497 58.0778 46.6985 58.2876 46.6078 58.543C46.5193 58.7979 46.5131 59.0937 46.589 59.4301L46.6955 59.9022L45.9564 60.0691L46.1621 60.9808L46.9012 60.814L47.5461 63.6721C47.0779 63.8666 46.5864 64.0605 46.0716 64.2538L45.1675 60.247L43.9888 60.513L44.9237 64.6565C44.5243 64.7892 44.1278 64.9137 43.7341 65.0301L42.4005 59.1193L41.2218 59.3853L42.5682 65.3529C42.1712 65.4554 41.7772 65.5492 41.3862 65.6346L40.7859 62.974C40.711 62.6419 40.5877 62.3788 40.4162 62.1848C40.2468 61.9904 40.049 61.8514 39.8225 61.7679C39.5956 61.6822 39.3563 61.6381 39.1048 61.6356C38.8533 61.633 38.6071 61.6589 38.3661 61.7133C38.0166 61.7921 37.7093 61.9162 37.4441 62.0856C37.1784 62.2527 36.9689 62.462 36.8157 62.7133C36.6621 62.9624 36.5761 63.2487 36.5578 63.5722L37.6937 63.4802C37.7136 63.2954 37.793 63.1213 37.9317 62.9576C38.0726 62.7935 38.2874 62.6789 38.5761 62.6137C38.8496 62.552 39.0743 62.5721 39.2501 62.6739C39.4259 62.7756 39.5416 62.9491 39.5969 63.1944L39.6013 63.2139C39.6268 63.3268 39.6033 63.42 39.5309 63.4933C39.4601 63.564 39.3365 63.633 39.1601 63.7002C38.9831 63.7652 38.7515 63.846 38.4653 63.9426C38.2281 64.0235 38.0021 64.1189 37.7874 64.229C37.5744 64.3363 37.3902 64.4657 37.235 64.6171C37.0798 64.7684 36.9709 64.9481 36.9084 65.1562C36.8458 65.3642 36.8464 65.6093 36.9101 65.8915C36.9385 66.0174 36.9759 66.1331 37.0223 66.2387C36.5991 66.2614 36.1799 66.2728 35.7647 66.2728C35.0108 66.2728 34.3025 66.2045 33.6397 66.068C31.3347 62.4333 30 58.1225 30 53.5C30 40.5213 40.5213 30 53.5 30ZM66.0137 36.5956C65.9739 36.5956 65.9135 36.6759 65.8332 36.8357C65.292 38.1192 65.0214 38.9311 65.0214 39.2713C65.3226 39.8729 65.4724 40.645 65.4724 41.5868C65.4724 42.4086 65.7132 46.2122 66.1941 52.9975C66.6756 59.7829 66.9157 63.6469 66.9157 64.5895C66.9157 65.6315 66.866 66.5434 66.7658 67.3255C66.7055 67.8866 66.6955 68.2574 66.7353 68.4378C66.7559 68.5983 66.8355 68.5585 66.9761 68.3177C67.0564 68.1572 67.1764 67.9065 67.3369 67.5662C68.0181 65.8424 68.359 63.8372 68.359 61.5522C68.359 60.8106 68.1439 57.473 67.7127 51.5393C67.2816 45.6056 67.0663 42.599 67.0663 42.5187C67.0663 42.258 67.1167 42.1984 67.2169 42.3383C68.0585 43.2808 68.4798 43.5415 68.4798 43.1203C68.4798 42.9797 68.4393 42.7694 68.359 42.4889C68.2589 42.1281 67.908 41.1656 67.3071 39.6023C66.7453 38.0986 66.3845 37.1767 66.2246 36.8357C66.1444 36.6759 66.0741 36.5956 66.0137 36.5956ZM44.6571 58.4699C44.4962 58.3739 44.3214 58.3471 44.1325 58.3898C43.9458 58.4319 43.7994 58.531 43.6932 58.6873C43.5865 58.8414 43.5533 59.0075 43.5935 59.1855C43.6332 59.3613 43.7345 59.497 43.8975 59.5926C44.06 59.6859 44.2346 59.7115 44.4213 59.6694C44.6101 59.6268 44.7568 59.5287 44.8613 59.3751C44.9675 59.2188 45.0007 59.0528 44.9611 58.8769C44.9209 58.6989 44.8196 58.5633 44.6571 58.4699ZM51.5852 48.1092C51.5249 48.1092 51.4644 48.1696 51.4048 48.2896L50.4424 50.2145C50.4026 50.2948 50.4026 50.3544 50.4424 50.3949C51.2443 50.8757 52.0057 51.3971 52.7273 51.9583C52.8076 52.0186 52.8879 51.9782 52.9682 51.8382C53.6294 50.7955 53.9604 50.1144 53.9604 49.7933C53.9604 49.6932 53.5897 49.3877 52.8481 48.8763C52.1059 48.365 51.6855 48.1093 51.5852 48.1092Z" fill="url(#paint1_linear_536_57755)"/>
<path d="M39.9609 64.7925C40.0025 64.977 39.9932 65.1582 39.9329 65.336C39.8749 65.5134 39.7698 65.6694 39.6177 65.8041C39.5131 65.895 39.3887 65.9672 39.2446 66.0208C39.0223 66.0522 38.801 66.0806 38.5807 66.1061C38.5141 66.0956 38.4507 66.0781 38.3907 66.0536C38.2073 65.9787 38.091 65.8326 38.0421 65.6155C38.0078 65.4636 38.02 65.3308 38.0788 65.2172C38.1371 65.1013 38.2296 65.0006 38.3563 64.915C38.4829 64.8294 38.6315 64.7548 38.8019 64.6913C38.8776 64.6628 38.967 64.6289 39.0699 64.5897C39.1729 64.5505 39.2764 64.5089 39.3805 64.4649C39.4846 64.4209 39.5772 64.376 39.6581 64.3304C39.7413 64.2843 39.7979 64.2418 39.8279 64.2031L39.9609 64.7925Z" fill="url(#paint2_linear_536_57755)"/>
<path d="M52.6333 56.7713C53.014 56.7713 53.4352 57.162 53.8962 57.944C54.3373 58.6657 54.5575 59.2268 54.5575 59.6281C54.5575 59.7887 54.2669 60.0891 53.686 60.5301C53.1845 60.9308 52.7335 61.2212 52.3329 61.4017C52.112 61.1012 51.8868 60.6204 51.6559 59.9584C51.2772 58.8713 51.1005 58.161 51.7313 57.3275C52.0118 56.9567 52.3129 56.7713 52.6333 56.7713Z" fill="url(#paint3_linear_536_57755)"/>
<defs>
<linearGradient id="paint0_linear_536_57755" x1="91" y1="0.467041" x2="91" y2="75.467" gradientUnits="userSpaceOnUse">
<stop stop-color="#109DF4"/>
<stop offset="1" stop-color="#095B8E"/>
</linearGradient>
<linearGradient id="paint1_linear_536_57755" x1="53.5" y1="30" x2="53.5" y2="77" gradientUnits="userSpaceOnUse">
<stop stop-color="white"/>
<stop offset="1" stop-color="white"/>
</linearGradient>
<linearGradient id="paint2_linear_536_57755" x1="53.5" y1="30" x2="53.5" y2="77" gradientUnits="userSpaceOnUse">
<stop stop-color="white"/>
<stop offset="1" stop-color="white"/>
</linearGradient>
<linearGradient id="paint3_linear_536_57755" x1="53.5" y1="30" x2="53.5" y2="77" gradientUnits="userSpaceOnUse">
<stop stop-color="white"/>
<stop offset="1" stop-color="white"/>
</linearGradient>
</defs>
</svg>
