<svg width="24" height="24" viewBox="0 0 24 24" fill="none" xmlns="http://www.w3.org/2000/svg">
<path d="M20.001 3C20.2662 3 20.5206 3.10536 20.7081 3.29289C20.8957 3.48043 21.001 3.73478 21.001 4V20C21.001 20.2652 20.8957 20.5196 20.7081 20.7071C20.5206 20.8946 20.2662 21 20.001 21H4.00101C3.73579 21 3.48144 20.8946 3.2939 20.7071C3.10636 20.5196 3.00101 20.2652 3.00101 20V4C3.00101 3.73478 3.10636 3.48043 3.2939 3.29289C3.48144 3.10536 3.73579 3 4.00101 3H20.001ZM19.001 5H5.00101V19H19.001V5ZM17.001 7V17H14.501V9.5H12.001V17H7.00101V7H17.001Z" fill="white"/>
</svg>
