<svg width="24" height="24" viewBox="0 0 24 24" fill="none" xmlns="http://www.w3.org/2000/svg">
<path d="M11.56 2.06995C6.29 2.06995 2 6.35995 2 11.6299C2 15.5599 4.39 18.9499 7.79 20.4099C9.24 21.3599 10.97 21.9199 12.83 21.9199C17.89 21.9199 22 17.8099 22 12.7499C22 10.4799 21.17 8.40995 19.81 6.80995C18.15 3.97995 15.07 2.06995 11.56 2.06995ZM11.56 20.7999C6.5 20.7999 2.39 16.6799 2.39 11.6299C2.39 6.57995 6.5 2.45995 11.56 2.45995C16.62 2.45995 20.73 6.57995 20.73 11.6299C20.73 16.6799 16.61 20.7999 11.56 20.7999Z" fill="black"/>
<path d="M11.5 12.15H13.87C13.61 13.31 12.97 14.46 11.5 14.46C9.87 14.46 8.81 13.04 8.81 11.31C8.81 9.58 9.86 8.16 11.5 8.16C13.03 8.16 13.66 9.26 13.71 10H16.19C16.14 8.69 14.98 6.37 11.56 6.37C8.14 6.37 6.5 8.63 6.5 11.41C6.5 14.19 8.08 16.24 10.77 16.24C13.46 16.24 14.14 14.09 14.3 12.98V16.03H16.48V11.2H11.51V12.15H11.5Z" fill="black"/>
</svg>
