<svg width="24" height="24" viewBox="0 0 24 24" fill="none" xmlns="http://www.w3.org/2000/svg">
<path d="M18.44 3.06006H5.56C4.89752 3.06191 4.26271 3.32589 3.79427 3.79433C3.32583 4.26277 3.06184 4.89759 3.06 5.56006V18.4401C3.06184 19.1025 3.32583 19.7373 3.79427 20.2058C4.26271 20.6742 4.89752 20.9382 5.56 20.9401H18.44C19.103 20.9401 19.7389 20.6767 20.2078 20.2078C20.6766 19.739 20.94 19.1031 20.94 18.4401V5.56006C20.94 4.89702 20.6766 4.26113 20.2078 3.79229C19.7389 3.32345 19.103 3.06006 18.44 3.06006ZM19.94 18.4401C19.9374 18.8371 19.7785 19.2171 19.4978 19.4978C19.217 19.7786 18.837 19.9374 18.44 19.9401H5.56C5.16298 19.9374 4.78297 19.7786 4.50223 19.4978C4.2215 19.2171 4.06262 18.8371 4.06 18.4401V5.56006C4.06262 5.16304 4.2215 4.78303 4.50223 4.50229C4.78297 4.22156 5.16298 4.06268 5.56 4.06006H18.44C18.837 4.06268 19.217 4.22156 19.4978 4.50229C19.7785 4.78303 19.9374 5.16304 19.94 5.56006V18.4401Z" fill="white"/>
<path d="M6.37598 10.748C6.37598 10.4828 6.48133 10.2285 6.66887 10.0409C6.85641 9.8534 7.11076 9.74805 7.37598 9.74805C7.64119 9.74805 7.89555 9.8534 8.08308 10.0409C8.27062 10.2285 8.37598 10.4828 8.37598 10.748V17.248C8.37598 17.5133 8.27062 17.7676 8.08308 17.9552C7.89555 18.1427 7.64119 18.248 7.37598 18.248C7.11076 18.248 6.85641 18.1427 6.66887 17.9552C6.48133 17.7676 6.37598 17.5133 6.37598 17.248V10.748Z" fill="white"/>
<path d="M7.37598 7.7439C7.92826 7.7439 8.37598 7.29618 8.37598 6.7439C8.37598 6.19161 7.92826 5.7439 7.37598 5.7439C6.82369 5.7439 6.37598 6.19161 6.37598 6.7439C6.37598 7.29618 6.82369 7.7439 7.37598 7.7439Z" fill="white"/>
<path d="M17.62 13.3701V17.2501C17.62 17.5153 17.5147 17.7697 17.3271 17.9572C17.1396 18.1448 16.8852 18.2501 16.62 18.2501C16.3548 18.2501 16.1004 18.1448 15.9129 17.9572C15.7254 17.7697 15.62 17.5153 15.62 17.2501V13.3701C15.62 12.9418 15.4499 12.531 15.147 12.2281C14.8441 11.9253 14.4333 11.7551 14.005 11.7551C13.5767 11.7551 13.1659 11.9253 12.863 12.2281C12.5602 12.531 12.39 12.9418 12.39 13.3701V17.2501C12.39 17.5153 12.2847 17.7697 12.0971 17.9572C11.9096 18.1448 11.6552 18.2501 11.39 18.2501C11.1248 18.2501 10.8704 18.1448 10.6829 17.9572C10.4954 17.7697 10.39 17.5153 10.39 17.2501V10.7501C10.3941 10.4862 10.5008 10.2342 10.6875 10.0476C10.8741 9.86091 11.1261 9.75423 11.39 9.75011C11.5594 9.74547 11.7269 9.7867 11.8747 9.86943C12.0226 9.95217 12.1454 10.0733 12.23 10.2201C12.7799 9.90846 13.4019 9.74664 14.034 9.75083C14.666 9.75502 15.2858 9.92507 15.8315 10.244C16.3772 10.5629 16.8296 11.0195 17.1435 11.5681C17.4573 12.1167 17.6217 12.7381 17.62 13.3701Z" fill="white"/>
</svg>
