<svg width="24" height="24" viewBox="0 0 24 24" fill="none" xmlns="http://www.w3.org/2000/svg">
<path fill-rule="evenodd" clip-rule="evenodd" d="M19.6327 7.91632H20.0203C20.1436 7.91632 20.2493 7.93839 20.3197 8.00461C20.3902 8.04875 20.4431 8.13704 20.4783 8.20326C20.5136 8.29155 20.5312 8.37984 20.5488 8.46813C20.5664 8.5785 20.5664 8.6668 20.5664 8.73301V10.7196C20.5664 10.9624 20.6016 11.161 20.6897 11.3155C20.7778 11.47 20.8835 11.6025 21.0244 11.6908C21.1477 11.7791 21.3063 11.8453 21.4472 11.8894C21.6058 11.9336 21.7467 11.9556 21.87 11.9556V11.9777C21.7606 11.9777 21.6372 11.9951 21.5 12.0144L21.4472 12.0219C21.2887 12.0439 21.1477 12.1102 21.0244 12.1985C20.9011 12.2867 20.7778 12.4192 20.6897 12.5958C20.6016 12.7723 20.5664 13.0151 20.5664 13.3021V15.1782C20.5664 15.2666 20.5664 15.3548 20.5488 15.4432C20.5312 15.5535 20.5136 15.6418 20.4607 15.7081C20.4255 15.7963 20.355 15.8625 20.2669 15.9067C20.1788 15.9508 20.0731 15.995 19.9145 15.995H19.6151V17.4615H20.1472C20.3233 17.4615 20.4995 17.4173 20.6757 17.3511C20.8519 17.2849 21.028 17.1746 21.1866 17.0421C21.3452 16.9096 21.4685 16.711 21.5741 16.4903C21.6799 16.2696 21.7151 16.0047 21.7151 15.6957V13.9422C21.7151 13.7435 21.7504 13.589 21.8208 13.4787C21.8913 13.3683 21.9793 13.28 22.0851 13.2138C22.1908 13.1476 22.2964 13.1035 22.4021 13.0813C22.5079 13.0593 22.596 13.0593 22.6488 13.0593V10.9624C22.5783 10.9624 22.5079 10.9624 22.4021 10.9403C22.2964 10.9182 22.1908 10.8961 22.1027 10.8299C21.9969 10.7637 21.9265 10.6975 21.8384 10.5871C21.7504 10.4768 21.7327 10.3443 21.7327 10.1677V8.30391C21.7327 7.99489 21.6799 7.73002 21.5917 7.50929C21.4861 7.28856 21.3628 7.11198 21.2042 6.95747C21.0457 6.82503 20.8871 6.71467 20.6933 6.64845C20.5172 6.58223 20.341 6.53809 20.1648 6.53809H19.6327V7.91632ZM4.36722 7.91647H3.97964C3.85633 7.91647 3.75063 7.93854 3.68016 8.00476C3.60969 8.04891 3.55684 8.1372 3.52161 8.20342C3.48638 8.2917 3.46876 8.37999 3.45114 8.46829C3.43352 8.57865 3.43352 8.66695 3.43352 8.73317V10.7197C3.43352 10.9625 3.39829 11.1612 3.3102 11.3157C3.22212 11.4702 3.13378 11.5747 2.97549 11.6909C2.82844 11.7989 2.69362 11.8454 2.55268 11.8896C2.39413 11.9337 2.2532 11.9558 2.12988 11.9558V11.9779C2.23932 11.9779 2.36265 11.9953 2.49985 12.0146L2.55268 12.022C2.71123 12.0441 2.85217 12.1103 2.97549 12.1986C3.0988 12.2869 3.22212 12.4193 3.3102 12.5959C3.39829 12.7725 3.43352 13.0153 3.43352 13.3023V15.1785C3.43352 15.2667 3.43352 15.355 3.45114 15.4433C3.46876 15.5537 3.48638 15.6419 3.53922 15.7082C3.57446 15.7965 3.64493 15.8627 3.73301 15.9069C3.82109 15.951 3.9268 15.9951 4.08535 15.9951H4.38483V17.4617H3.85273C3.67656 17.4617 3.50039 17.4175 3.32422 17.3513C3.14805 17.2851 2.97189 17.1747 2.81333 17.0422C2.65478 16.9099 2.53146 16.7111 2.42576 16.4904C2.32006 16.2697 2.28483 16.0048 2.28483 15.6958V13.9424C2.28483 13.7437 2.24959 13.5892 2.17912 13.4788C2.10866 13.3684 2.02058 13.2802 1.91487 13.2139C1.80917 13.1477 1.70347 13.1036 1.59777 13.0815C1.49207 13.0595 1.40399 13.0594 1.35114 13.0594V10.9625C1.4216 10.9625 1.49207 10.9625 1.59777 10.9404C1.70347 10.9184 1.80917 10.8963 1.89726 10.8301C2.00296 10.7639 2.07343 10.6976 2.16151 10.5873C2.24959 10.4769 2.26721 10.3445 2.26721 10.1679V8.30407C2.26721 7.99505 2.32006 7.73017 2.40815 7.50945C2.51385 7.28871 2.63717 7.11213 2.79572 6.95762C2.95427 6.82519 3.11282 6.71482 3.3066 6.6486C3.48278 6.58239 3.65894 6.53824 3.83511 6.53824H4.36722V7.91647ZM15.017 13.6244L7.72929 6.97952H6.71484V8.01199L14.0026 14.6568L13.423 15.25L14.2865 16.1225L15.062 15.3127L16.3153 16.5556C16.5542 16.797 16.7721 16.9174 17.0109 16.6761C17.2497 16.4348 17.1338 16.2038 16.895 15.9625L15.6661 14.7134L16.4602 13.9037L15.5966 13.0312L15.017 13.6244ZM16.7033 8.00461L13.7069 10.9625L12.786 10.0362L15.6888 7.10319H16.7033V8.00461ZM9.75447 12.3805L10.769 13.4377L9.41553 14.7805L9.99516 15.3736L9.13165 16.2461L8.35604 15.4364L7.10275 16.6855C6.8639 16.9268 6.6439 17.0462 6.40506 16.8049C6.16622 16.5636 6.28427 16.3337 6.52312 16.0923L7.7519 14.8371L6.95793 14.0274L7.82144 13.1549L8.40103 13.748L9.75447 12.3805Z" fill="white"/>
</svg>
