<svg width="274" height="73" viewBox="0 0 274 73" fill="none" xmlns="http://www.w3.org/2000/svg">
<path d="M51.4477 8.29974C70.6153 19.3661 67.7077 14.3308 67.7077 36.4634C67.7077 58.5961 70.6153 53.5607 51.4477 64.6268C33.2008 75.1614 37.5926 75.6668 21.5213 66.1447C22.9884 65.2956 24.4283 64.3814 25.8982 63.5327C27.5408 62.5841 29.2356 61.7093 30.8647 60.748C32.2724 59.9174 33.529 59.0155 34.3648 57.5676C35.2007 56.12 35.3536 54.5812 35.3691 52.9466C35.3869 51.055 35.2975 49.1501 35.2975 47.2529C35.2975 45.356 35.3869 43.4509 35.3691 41.5592C35.3536 39.9248 35.2008 38.3858 34.3648 36.9379C33.5291 35.4903 32.2726 34.5885 30.8647 33.7577C29.2356 32.796 27.5407 31.9213 25.8981 30.9728C24.2556 30.0244 22.6503 28.994 21.0029 28.0641C19.58 27.2602 18.1705 26.6228 16.4991 26.6228C14.8273 26.6228 13.4179 27.2602 11.995 28.0639C10.3474 28.9939 8.74219 30.0244 7.09968 30.9728C5.62995 31.8216 4.11849 32.611 2.64948 33.4566C2.4386 14.7786 0.681149 18.8343 18.9272 8.29966C38.0951 -2.76657 32.2801 -2.76657 51.4477 8.29974Z" fill="white"></path>
<path d="M24.7113 33.0333C34.3897 38.6212 32.9218 36.0786 32.9218 47.2545C32.9218 58.4302 34.3897 55.8877 24.7113 61.4758C15.0326 67.0638 17.9686 67.0638 8.29001 61.4758C-1.38857 55.8877 0.0795377 58.4303 0.0795377 47.2545C0.0795377 36.0786 -1.38857 38.6212 8.29001 33.0333C17.9686 27.4454 15.0326 27.4453 24.7113 33.0333Z" fill="white"></path>
<path d="M24.7119 33.0321C19.9187 30.2649 18.2194 28.8686 16.5496 28.8424C16.147 30.3427 16.4031 32.6574 16.4031 37.377C16.4031 48.7503 14.9092 46.1631 24.7586 51.8493C29.2246 54.4279 31.0514 55.8373 32.6324 56.0775C33.2302 54.6153 32.9223 52.3752 32.9223 47.2533C32.9223 36.0775 34.3904 38.62 24.7119 33.0321Z" fill="white"></path>
<path fill-rule="evenodd" clip-rule="evenodd" d="M18.9273 61.2946C5.0492 53.2816 2.74364 53.7099 2.52778 46.155C2.34288 57.2857 3.27256 55.584 18.9273 64.6224L19.1611 64.7632L21.9744 63.0964C21.043 62.5426 20.0086 61.9187 18.9273 61.2946Z" fill="white"></path>
<path fill-rule="evenodd" clip-rule="evenodd" d="M35.9848 36.0038C35.069 34.4179 33.6956 33.4298 32.1535 32.52C30.3822 31.4745 28.5394 30.5234 26.7537 29.4923C24.9676 28.4609 23.2226 27.3407 21.4318 26.3296C19.8725 25.4492 18.3304 24.7535 16.4991 24.7535C14.6676 24.7535 13.1252 25.4491 11.566 26.3296C9.77511 27.3407 8.03015 28.4609 6.24427 29.4923C5.04923 30.1821 3.82875 30.8365 2.62121 31.5069C2.6318 32.1293 2.64194 32.7766 2.64945 33.4576C4.11846 32.6121 5.63 31.8227 7.09965 30.9738C8.74207 30.0254 10.3474 28.9951 11.995 28.065C13.4179 27.2613 14.8273 26.6238 16.4991 26.6238C18.1705 26.6238 19.5799 27.2613 21.0029 28.0651C22.6503 28.995 24.2555 30.0254 25.898 30.9738C27.5406 31.9224 29.2355 32.7971 30.8646 33.7587C32.2726 34.5896 33.529 35.4914 34.3648 36.9389C35.2006 38.3869 35.3536 39.9258 35.3691 41.5603C35.3869 43.452 35.2975 45.357 35.2975 47.254C35.2975 49.1512 35.3869 51.056 35.3691 52.9476C35.3536 54.5823 35.2007 56.1211 34.3648 57.5686C33.5291 59.0165 32.2724 59.9184 30.8646 60.7491C29.2355 61.7103 27.5408 62.585 25.8982 63.5338C24.4283 64.3825 22.9882 65.2968 21.5213 66.1457C22.1076 66.4935 22.6634 66.8252 23.1971 67.1458C24.3817 66.4354 25.5586 65.7052 26.7538 65.0155C28.5394 63.9842 30.3822 63.0332 32.1534 61.988C33.6953 61.0777 35.0689 60.0901 35.9848 58.5044C36.9005 56.9182 37.0692 55.2348 37.0865 53.4443C37.106 51.3876 37.0084 49.3163 37.0084 47.2541C37.0084 45.1919 37.106 43.1207 37.0865 41.064C37.0692 39.2734 36.9005 37.59 35.9848 36.0038Z" fill="white"></path>
<path fill-rule="evenodd" clip-rule="evenodd" d="M51.4477 8.29974C32.2801 -2.76657 38.0951 -2.76657 18.9272 8.29966C3.27262 17.3381 2.34288 15.6365 2.52778 26.7671C2.74364 19.2122 5.04911 19.6404 18.9273 11.6276C38.0952 0.561251 32.2802 0.561251 51.4479 11.6276C65.3255 19.6398 67.6316 19.2116 67.8472 26.7649C68.032 15.6359 67.1022 17.3378 51.4477 8.29974Z" fill="white"></path>
<path fill-rule="evenodd" clip-rule="evenodd" d="M5.55165 38.1477C5.55165 36.8638 5.54178 35.6953 5.52703 34.5861L2.66902 36.1906L2.66974 36.4838C2.66992 54.5606 0.731278 54.5144 10.4631 59.9197C4.02816 55.9556 5.55165 54.1733 5.55165 38.1477Z" fill="white"></path>
<path fill-rule="evenodd" clip-rule="evenodd" d="M18.9274 8.32092C0.684071 18.854 2.43806 14.7886 2.64948 33.4566L5.47829 31.8834C5.17826 16.9569 4.72274 19.8499 21.8094 9.98479C35.687 1.97235 36.4692 -0.238815 43.1183 3.35112C33.5727 -2.3735 34.5816 -0.717327 18.9274 8.32092Z" fill="white"></path>
<path fill-rule="evenodd" clip-rule="evenodd" d="M51.4488 61.2955C34.3348 71.1759 37.152 72.244 24.3048 64.48L21.5223 66.1465C37.6691 75.7081 33.178 75.1717 51.4487 64.6235C67.1032 55.5854 68.0329 57.2871 67.848 46.1581C67.6325 53.7113 65.3264 53.2832 51.4488 61.2955Z" fill="white"></path>
<path d="M84.0752 50.9727H79.9952C79.3232 50.9727 78.9872 50.6367 78.9872 49.9647V21.1167C78.9872 20.4447 79.3232 20.1087 79.9952 20.1087H95.3072C95.9472 20.1087 96.2672 20.4447 96.2672 21.1167V24.3807C96.2672 25.0527 95.9472 25.3887 95.3072 25.3887H85.6592C85.2752 25.3887 85.0832 25.5647 85.0832 25.9167V33.3567C85.0832 33.7407 85.2752 33.9327 85.6592 33.9327H93.8672C94.5392 33.9327 94.8752 34.2687 94.8752 34.9407V38.1567C94.8752 38.8607 94.5392 39.2127 93.8672 39.2127H85.6592C85.2752 39.2127 85.0832 39.3887 85.0832 39.7407V49.9647C85.0832 50.6367 84.7472 50.9727 84.0752 50.9727ZM116.389 20.1087H120.421C121.125 20.1087 121.477 20.4287 121.477 21.0687V43.1487C121.477 45.6447 120.773 47.5807 119.365 48.9567C117.989 50.3007 116.053 50.9727 113.557 50.9727H108.277C105.749 50.9727 103.797 50.3007 102.421 48.9567C101.045 47.6127 100.357 45.6767 100.357 43.1487V21.1167C100.357 20.4447 100.693 20.1087 101.365 20.1087H105.445C106.117 20.1087 106.453 20.4447 106.453 21.1167V42.8607C106.453 43.8847 106.661 44.6207 107.077 45.0687C107.525 45.4847 108.245 45.6927 109.237 45.6927H112.549C113.573 45.6927 114.293 45.4847 114.709 45.0687C115.157 44.6207 115.381 43.8847 115.381 42.8607V21.1167C115.381 20.4447 115.717 20.1087 116.389 20.1087ZM133.792 21.1167V49.9647C133.792 50.6367 133.456 50.9727 132.784 50.9727H128.704C128.032 50.9727 127.696 50.6367 127.696 49.9647V21.1167C127.696 20.4447 128.032 20.1087 128.704 20.1087H132.784C133.456 20.1087 133.792 20.4447 133.792 21.1167Z" fill="white"></path>
<path d="M142.219 43.1007V42.1407C142.219 41.4687 142.555 41.1327 143.227 41.1327H147.307C147.979 41.1327 148.315 41.4687 148.315 42.1407V42.5247C148.315 43.7407 148.555 44.5727 149.035 45.0207C149.515 45.4687 150.395 45.6927 151.675 45.6927H153.931C155.179 45.6927 156.043 45.4527 156.523 44.9727C157.035 44.4927 157.291 43.5967 157.291 42.2847V41.7087C157.291 40.7807 156.907 40.0767 156.139 39.5967C155.403 39.0847 154.475 38.7807 153.355 38.6847C152.235 38.5887 151.019 38.4127 149.707 38.1567C148.427 37.8687 147.227 37.5167 146.107 37.1007C144.987 36.6527 144.043 35.8047 143.275 34.5567C142.539 33.2767 142.171 31.6447 142.171 29.6607V27.9807C142.171 25.4847 142.875 23.5487 144.283 22.1727C145.691 20.7967 147.643 20.1087 150.139 20.1087H154.939C157.467 20.1087 159.435 20.7967 160.843 22.1727C162.251 23.5487 162.955 25.4847 162.955 27.9807V28.8927C162.955 29.5647 162.619 29.9007 161.947 29.9007H157.867C157.195 29.9007 156.859 29.5647 156.859 28.8927V28.6047C156.859 27.3567 156.619 26.5087 156.139 26.0607C155.659 25.6127 154.779 25.3887 153.499 25.3887H151.627C150.315 25.3887 149.419 25.6447 148.939 26.1567C148.491 26.6367 148.267 27.5967 148.267 29.0367V29.9487C148.267 31.4527 149.579 32.3167 152.203 32.5407C154.923 32.7647 157.339 33.3087 159.451 34.1727C160.571 34.6527 161.499 35.5167 162.235 36.7647C163.003 37.9807 163.387 39.5487 163.387 41.4687V43.1007C163.387 45.5967 162.683 47.5327 161.275 48.9087C159.867 50.2847 157.915 50.9727 155.419 50.9727H150.187C147.691 50.9727 145.739 50.2847 144.331 48.9087C142.923 47.5327 142.219 45.5967 142.219 43.1007ZM168.91 31.7727H166.99C166.606 31.7727 166.334 31.7087 166.174 31.5807C166.046 31.4527 165.982 31.1967 165.982 30.8127V27.5007C165.982 26.8287 166.318 26.4927 166.99 26.4927H168.91C169.262 26.4927 169.438 26.3167 169.438 25.9647V21.4047C169.438 20.7327 169.79 20.3967 170.494 20.3967H174.526C175.198 20.3967 175.534 20.7327 175.534 21.4047V25.9647C175.534 26.3167 175.726 26.4927 176.11 26.4927H179.854C180.526 26.4927 180.862 26.8287 180.862 27.5007V30.8127C180.862 31.1647 180.782 31.4207 180.622 31.5807C180.494 31.7087 180.238 31.7727 179.854 31.7727H176.11C175.726 31.7727 175.534 31.9487 175.534 32.3007V42.9087C175.534 43.9007 175.758 44.6207 176.206 45.0687C176.654 45.4847 177.39 45.6927 178.414 45.6927H180.334C181.006 45.6927 181.342 46.0287 181.342 46.7007V50.0127C181.342 50.3647 181.262 50.6207 181.102 50.7807C180.974 50.9087 180.718 50.9727 180.334 50.9727H177.406C174.878 50.9727 172.91 50.3007 171.502 48.9567C170.126 47.6127 169.438 45.6927 169.438 43.1967V32.3007C169.438 31.9487 169.262 31.7727 168.91 31.7727ZM194.136 50.9727H192.552C190.088 50.9727 188.216 50.3007 186.936 48.9567C185.688 47.6127 185.064 45.6767 185.064 43.1487V27.5007C185.064 26.8287 185.4 26.4927 186.072 26.4927H190.152C190.824 26.4927 191.16 26.8287 191.16 27.5007V42.8607C191.16 43.8847 191.368 44.6207 191.784 45.0687C192.232 45.4847 192.952 45.6927 193.944 45.6927H195.72C197.928 45.6927 199.032 44.4767 199.032 42.0447V27.5007C199.032 26.8287 199.368 26.4927 200.04 26.4927H204.072C204.776 26.4927 205.128 26.8287 205.128 27.5007V49.9647C205.128 50.6367 204.776 50.9727 204.072 50.9727H200.04C199.368 50.9727 199.032 50.6367 199.032 49.9647V48.3807H198.84C198.488 49.2447 197.864 49.9007 196.968 50.3487C196.072 50.7647 195.128 50.9727 194.136 50.9727ZM219.405 50.9727H217.437C214.973 50.9727 213.101 50.3007 211.821 48.9567C210.573 47.6127 209.949 45.6767 209.949 43.1487V34.3167C209.949 31.7887 210.573 29.8527 211.821 28.5087C213.101 27.1647 214.973 26.4927 217.437 26.4927H219.405C220.397 26.4927 221.341 26.7167 222.237 27.1647C223.133 27.5807 223.757 28.2207 224.109 29.0847H224.301V18.2367C224.301 17.5647 224.637 17.2287 225.309 17.2287H229.389C230.061 17.2287 230.397 17.5647 230.397 18.2367V49.9647C230.397 50.6367 230.061 50.9727 229.389 50.9727H225.309C224.637 50.9727 224.301 50.6367 224.301 49.9647V48.3807H224.109C223.757 49.2447 223.133 49.9007 222.237 50.3487C221.341 50.7647 220.397 50.9727 219.405 50.9727ZM224.301 42.0447V35.4207C224.301 32.9887 223.197 31.7727 220.989 31.7727H218.829C217.805 31.7727 217.085 31.9967 216.669 32.4447C216.253 32.8607 216.045 33.5807 216.045 34.6047V42.8607C216.045 43.8847 216.253 44.6207 216.669 45.0687C217.085 45.4847 217.805 45.6927 218.829 45.6927H220.989C223.197 45.6927 224.301 44.4767 224.301 42.0447ZM235.935 22.3647V18.1887C235.935 17.5487 236.255 17.2287 236.895 17.2287H241.071C241.711 17.2287 242.031 17.5327 242.031 18.1407V22.3647C242.031 23.0047 241.711 23.3247 241.071 23.3247H236.895C236.255 23.3247 235.935 23.0047 235.935 22.3647ZM235.935 49.9647V27.5007C235.935 26.8287 236.255 26.4927 236.895 26.4927H241.023C241.695 26.4927 242.031 26.8287 242.031 27.5007V49.9647C242.031 50.3807 241.951 50.6527 241.791 50.7807C241.663 50.9087 241.423 50.9727 241.071 50.9727H236.943C236.271 50.9727 235.935 50.6367 235.935 49.9647ZM259.266 50.9727H254.994C252.466 50.9727 250.514 50.3007 249.138 48.9567C247.762 47.6127 247.074 45.6767 247.074 43.1487V34.3167C247.074 31.7887 247.762 29.8527 249.138 28.5087C250.514 27.1647 252.466 26.4927 254.994 26.4927H259.266C261.762 26.4927 263.698 27.1807 265.074 28.5567C266.482 29.9007 267.186 31.8207 267.186 34.3167V43.1487C267.186 45.6447 266.482 47.5807 265.074 48.9567C263.698 50.3007 261.762 50.9727 259.266 50.9727ZM255.906 45.7407H258.354C259.378 45.7407 260.098 45.5327 260.514 45.1167C260.962 44.7007 261.186 43.9807 261.186 42.9567V34.5087C261.186 33.4847 260.962 32.7647 260.514 32.3487C260.098 31.9327 259.378 31.7247 258.354 31.7247H255.906C254.882 31.7247 254.162 31.9327 253.746 32.3487C253.33 32.7647 253.122 33.4847 253.122 34.5087V42.9567C253.122 43.9807 253.33 44.7007 253.746 45.1167C254.162 45.5327 254.882 45.7407 255.906 45.7407Z" fill="#C7FF00"></path>
</svg>