<svg width="150" height="150" viewBox="0 0 150 150" fill="none" xmlns="http://www.w3.org/2000/svg">
<g clip-path="url(#clip0_230_13454)">
<path d="M0 0H150V150H0V0Z" fill="white"/>
<path d="M108.977 32.8876C110.622 32.6554 112.565 33.4606 113.678 34.6777C113.961 34.9877 114.644 35.879 114.688 36.2862C115.055 39.7157 114.98 43.2141 114.982 46.6632L114.982 65.089L114.985 95.6876C114.987 101.181 115.05 106.689 114.902 112.179C114.832 114.799 112.582 116.633 110.173 117.173C107.608 117.253 105.591 116.195 104.329 113.893L104.265 113.775C103.5 112.38 103.744 103.7 103.743 101.59L103.741 80.412L103.738 52.7612C103.738 47.8483 103.649 42.8832 103.866 37.9788C103.992 35.1301 106.261 33.2173 108.977 32.8876Z" fill="black"/>
<path d="M39.6544 32.8337C41.0415 32.7956 42.0067 32.8282 43.3119 33.4666C44.5334 34.0668 45.4652 35.1291 45.9009 36.4181C46.3606 37.8206 46.2501 48.6637 46.2527 50.7099L46.2429 82.1088L46.252 101.153C46.2525 104.677 46.3088 108.236 46.1804 111.756C46.0779 114.563 44.6077 116.233 41.9652 117.036C38.0235 117.616 35.3473 115.448 35.1556 111.473C34.9257 106.705 35.0189 101.911 35.0176 97.1337L35.0163 73.4767L35.02 51.7327C35.0195 47.7057 34.991 43.6732 35.0585 39.6501C35.0876 37.9038 35.1829 36.3743 36.3767 34.9973C37.3961 33.8214 38.236 33.3487 39.6544 32.8337Z" fill="black"/>
<path d="M53.908 53.1914C56.1947 52.9411 57.7199 52.9893 59.3355 54.881C61.6469 57.5877 63.4503 60.7671 65.3689 63.7706L74.7116 78.3078C79.3265 73.8542 88.7255 54.9866 92.2672 53.4445C93.5736 52.8757 95.9568 53.0381 97.2547 53.5787C99.0957 54.3458 99.749 56.3804 100.457 58.0719C99.6333 60.0521 94.6252 67.7496 93.225 70.037C92.0068 71.7473 90.2927 74.6998 89.1204 76.5644L80.8099 89.7901C79.3497 92.1185 76.7562 96.4914 74.9086 98.3586C72.6824 95.4706 70.2787 91.4827 68.3104 88.3722C64.9581 83.1136 61.6458 77.8295 58.3734 72.5207C55.6439 68.1312 52.5669 63.6695 50.1416 59.1097C48.7635 56.5188 51.6975 54.1706 53.908 53.1914Z" fill="black"/>
</g>
<defs>
<clipPath id="clip0_230_13454">
<rect width="150" height="150" fill="white"/>
</clipPath>
</defs>
</svg>
