<svg width="24" height="24" viewBox="0 0 24 24" fill="none" xmlns="http://www.w3.org/2000/svg">
<g clip-path="url(#clip0_1826_35161)">
<path d="M23.9069 0H0.0930176V24H23.9069V0Z" fill="#C8414B"/>
<path d="M23.9069 5.05266H0.0930176V18.9473H23.9069V5.05266Z" fill="#FFD250"/>
<path d="M10.4695 12.0192L10.8534 10.4534C10.8888 10.3092 10.7677 10.1724 10.6047 10.1724H10.3342C10.1713 10.1724 10.0501 10.3092 10.0855 10.4534L10.4695 12.0192Z" fill="#C8414B"/>
<path d="M10.9221 11.198H10.0164V14.6864H10.9221V11.198Z" fill="#F5F5F5"/>
<path d="M11.1489 10.7878H9.79028V11.1982H11.1489V10.7878Z" fill="#FAB446"/>
<path d="M11.1483 12.0192H8.88428V12.4297H11.1483V12.0192Z" fill="#C8414B"/>
<path d="M11.1489 13.6607L9.79028 13.2503V12.84L11.1489 13.2503V13.6607Z" fill="#C8414B"/>
<path d="M3.67675 12.0192L4.06071 10.4534C4.09605 10.3092 3.97497 10.1724 3.81199 10.1724H3.54152C3.37853 10.1724 3.25741 10.3092 3.2928 10.4534L3.67675 12.0192Z" fill="#C8414B"/>
<path d="M5.2617 10.788C5.01162 10.788 4.80884 10.9717 4.80884 11.1984V13.866C4.80884 14.3646 5.32235 15.3023 7.07313 15.3023C8.82392 15.3023 9.33743 14.3646 9.33743 13.866V11.1984C9.33743 10.9718 9.1347 10.788 8.88457 10.788H5.2617Z" fill="#F5F5F5"/>
<path d="M7.07314 12.84H4.80884V11.2191C4.80884 10.981 5.00187 10.788 5.23995 10.788H7.07309V12.84H7.07314Z" fill="#C8414B"/>
<path d="M7.07324 12.84H9.33754V13.8142C9.33754 14.4094 8.85501 14.892 8.25979 14.892H8.15104C7.55582 14.892 7.07329 14.4094 7.07329 13.8142L7.07324 12.84Z" fill="#C8414B"/>
<path d="M4.80884 12.84H7.07313V13.8142C7.07313 14.4094 6.5906 14.892 5.99539 14.892H5.88664C5.29142 14.892 4.80888 14.4094 4.80888 13.8142L4.80884 12.84Z" fill="#FAB446"/>
<path d="M6.62034 14.6821V12.84H6.16748V14.8712C6.33586 14.8402 6.48811 14.7727 6.62034 14.6821Z" fill="#C8414B"/>
<path d="M5.71458 14.8712V12.84H5.26172V14.6821C5.39395 14.7727 5.54616 14.8402 5.71458 14.8712Z" fill="#C8414B"/>
<path d="M6.61986 12.0192H5.26123V12.4297H6.61986V12.0192Z" fill="#FFB441"/>
<path d="M6.61986 11.198H5.26123V11.6084H6.61986V11.198Z" fill="#FAB446"/>
<path d="M6.39376 11.4422H5.48804V12.1857H6.39376V11.4422Z" fill="#FAB446"/>
<path d="M4.1296 11.198H3.22388V14.6864H4.1296V11.198Z" fill="#F5F5F5"/>
<path d="M4.35594 14.4816H2.99731V14.892H4.35594V14.4816Z" fill="#FAB446"/>
<path d="M4.35594 10.7878H2.99731V11.1982H4.35594V10.7878Z" fill="#FAB446"/>
<path d="M4.58214 14.8922H2.77075V15.3026H4.58214V14.8922Z" fill="#5064AA"/>
<path d="M11.375 14.4816H10.0164V14.892H11.375V14.4816Z" fill="#FAB446"/>
<path d="M11.3754 14.8922H9.56396V15.3026H11.3754V14.8922Z" fill="#5064AA"/>
<path d="M8.4318 10.3777H5.7146V10.7881H8.4318V10.3777Z" fill="#FAB446"/>
<path d="M7.29954 9.14672H6.84668V10.3781H7.29954V9.14672Z" fill="#FFB441"/>
<path d="M6.62018 9.76196C6.24561 9.76196 5.94092 9.48581 5.94092 9.14639C5.94092 8.80697 6.24561 8.53083 6.62018 8.53083C6.99476 8.53083 7.29945 8.80697 7.29945 9.14639C7.2994 9.48581 6.99472 9.76196 6.62018 9.76196ZM6.62018 8.94117C6.49526 8.94117 6.39378 9.03319 6.39378 9.14639C6.39378 9.2596 6.49526 9.35161 6.62018 9.35161C6.74511 9.35161 6.84659 9.2596 6.84659 9.14639C6.84659 9.03314 6.74511 8.94117 6.62018 8.94117Z" fill="#F5F5F5"/>
<path d="M7.5257 9.76196C7.15112 9.76196 6.84644 9.48581 6.84644 9.14639C6.84644 8.80697 7.15112 8.53083 7.5257 8.53083C7.90028 8.53083 8.20497 8.80697 8.20497 9.14639C8.20492 9.48581 7.90028 9.76196 7.5257 9.76196ZM7.5257 8.94117C7.40078 8.94117 7.29929 9.03319 7.29929 9.14639C7.29929 9.2596 7.40078 9.35161 7.5257 9.35161C7.65062 9.35161 7.75211 9.2596 7.75211 9.14639C7.75211 9.03314 7.65062 8.94117 7.5257 8.94117Z" fill="#F5F5F5"/>
<path d="M8.43146 10.1724C8.05688 10.1724 7.7522 9.89625 7.7522 9.55683C7.7522 9.21741 8.05688 8.94127 8.43146 8.94127C8.80604 8.94127 9.11073 9.21741 9.11073 9.55683C9.11073 9.89625 8.80599 10.1724 8.43146 10.1724ZM8.43146 9.35157C8.30654 9.35157 8.20506 9.44358 8.20506 9.55679C8.20506 9.66999 8.30654 9.762 8.43146 9.762C8.55638 9.762 8.65787 9.66999 8.65787 9.55679C8.65787 9.44354 8.55638 9.35157 8.43146 9.35157Z" fill="#F5F5F5"/>
<path d="M5.71442 10.1724C5.33984 10.1724 5.03516 9.89625 5.03516 9.55683C5.03516 9.21741 5.33984 8.94127 5.71442 8.94127C6.089 8.94127 6.39369 9.21741 6.39369 9.55683C6.39364 9.89625 6.08895 10.1724 5.71442 10.1724ZM5.71442 9.35157C5.5895 9.35157 5.48802 9.44358 5.48802 9.55679C5.48802 9.66999 5.5895 9.762 5.71442 9.762C5.83934 9.762 5.94083 9.66999 5.94083 9.55679C5.94083 9.44354 5.83934 9.35157 5.71442 9.35157Z" fill="#F5F5F5"/>
<path d="M8.43164 13.6607V13.866C8.43164 13.9791 8.33007 14.0712 8.20524 14.0712C8.08041 14.0712 7.97883 13.9791 7.97883 13.866V13.6607H8.43164ZM8.88446 13.2503H7.52588V13.8659C7.52588 14.2053 7.83061 14.4815 8.20515 14.4815C8.57972 14.4815 8.88441 14.2053 8.88441 13.8659L8.88446 13.2503Z" fill="#FAB446"/>
<path d="M8.22681 12.4295H8.18331C7.94523 12.4295 7.7522 12.2365 7.7522 11.9984V11.6294C7.7522 11.3913 7.94523 11.1983 8.18331 11.1983H8.22681C8.46488 11.1983 8.65792 11.3913 8.65792 11.6294V11.9984C8.65792 12.2366 8.46488 12.4295 8.22681 12.4295Z" fill="#FFA0D2"/>
<path d="M7.07307 13.4555C7.44821 13.4555 7.75233 13.1799 7.75233 12.84C7.75233 12.5001 7.44821 12.2245 7.07307 12.2245C6.69792 12.2245 6.3938 12.5001 6.3938 12.84C6.3938 13.1799 6.69792 13.4555 7.07307 13.4555Z" fill="#5064AA"/>
<path d="M7.29954 8.32547H6.84668V9.55688H7.29954V8.32547Z" fill="#FAB446"/>
<path d="M5.71458 10.3776L5.26172 9.96713L5.52698 9.72671C5.93705 9.35508 6.49322 9.14635 7.07311 9.14635C7.653 9.14635 8.20922 9.35513 8.61923 9.72671L8.8845 9.96713L8.43164 10.3776H5.71458Z" fill="#C8414B"/>
<path d="M7.07284 10.1722C7.19788 10.1722 7.29925 10.0804 7.29925 9.96703C7.29925 9.85369 7.19788 9.76181 7.07284 9.76181C6.9478 9.76181 6.84644 9.85369 6.84644 9.96703C6.84644 10.0804 6.9478 10.1722 7.07284 10.1722Z" fill="#FFD250"/>
<path d="M6.16732 10.1722C6.29237 10.1722 6.39373 10.0804 6.39373 9.96703C6.39373 9.85369 6.29237 9.76181 6.16732 9.76181C6.04228 9.76181 5.94092 9.85369 5.94092 9.96703C5.94092 10.0804 6.04228 10.1722 6.16732 10.1722Z" fill="#FFD250"/>
<path d="M7.9786 10.1722C8.10364 10.1722 8.20501 10.0804 8.20501 9.96703C8.20501 9.85369 8.10364 9.76181 7.9786 9.76181C7.85356 9.76181 7.7522 9.85369 7.7522 9.96703C7.7522 10.0804 7.85356 10.1722 7.9786 10.1722Z" fill="#FFD250"/>
<path d="M5.26138 12.0192H2.99731V12.4297H5.26138V12.0192Z" fill="#C8414B"/>
<path d="M2.99731 13.6607L4.35589 13.2503V12.84L2.99731 13.2503V13.6607Z" fill="#C8414B"/>
</g>
<defs>
<clipPath id="clip0_1826_35161">
<rect width="24" height="24" fill="white"/>
</clipPath>
</defs>
</svg>
