<svg width="24" height="24" viewBox="0 0 24 24" fill="none" xmlns="http://www.w3.org/2000/svg">
<g clip-path="url(#clip0_1826_35093)">
<path d="M23.978 0.0109863H0V23.989H23.978V0.0109863Z" fill="#F5F5F5"/>
<path d="M24 0.0109863H0V1.85505H24V0.0109863Z" fill="#FF4B55"/>
<path d="M24 7.38885H0V9.23292H24V7.38885Z" fill="#FF4B55"/>
<path d="M24 3.70007H0V5.54414H24V3.70007Z" fill="#FF4B55"/>
<path d="M24 11.0775H0V12.9215H24V11.0775Z" fill="#FF4B55"/>
<path d="M24 18.4551H0V20.2992H24V18.4551Z" fill="#FF4B55"/>
<path d="M24 22.1442H0V23.9882H24V22.1442Z" fill="#FF4B55"/>
<path d="M24 14.7665H0V16.6106H24V14.7665Z" fill="#FF4B55"/>
<path d="M12.9113 0.0109863H0V12.9222H12.9113V0.0109863Z" fill="#41479B"/>
<path d="M1.65093 0.975685L1.7504 1.274L2.06484 1.27644C2.10553 1.27676 2.12245 1.3287 2.08968 1.35289L1.83674 1.53969L1.93157 1.8395C1.94385 1.87831 1.8997 1.91042 1.86651 1.88675L1.61067 1.70389L1.35482 1.88675C1.32173 1.91047 1.27753 1.87831 1.28976 1.8395L1.38459 1.53969L1.13165 1.35289C1.09893 1.3287 1.11576 1.27676 1.15649 1.27644L1.47093 1.274L1.5704 0.975685C1.58343 0.93706 1.63809 0.93706 1.65093 0.975685Z" fill="#F5F5F5"/>
<path d="M1.65093 3.46418L1.7504 3.7625L2.06484 3.76493C2.10553 3.76526 2.12245 3.8172 2.08968 3.84139L1.83674 4.02818L1.93157 4.328C1.94385 4.36681 1.8997 4.39892 1.86651 4.37525L1.61067 4.19239L1.35482 4.37525C1.32173 4.39897 1.27753 4.36681 1.28976 4.328L1.38459 4.02818L1.13165 3.84139C1.09893 3.8172 1.11576 3.76526 1.15649 3.76493L1.47093 3.7625L1.5704 3.46418C1.58343 3.42551 1.63809 3.42551 1.65093 3.46418Z" fill="#F5F5F5"/>
<path d="M1.65093 6.2241L1.7504 6.52241L2.06484 6.52485C2.10553 6.52518 2.12245 6.57711 2.08968 6.60135L1.83674 6.78815L1.93157 7.08796C1.94385 7.12677 1.8997 7.15888 1.86651 7.13521L1.61067 6.95235L1.35482 7.13521C1.32173 7.15893 1.27753 7.12677 1.28976 7.08796L1.38459 6.78815L1.13165 6.60135C1.09893 6.57716 1.11576 6.52518 1.15649 6.52485L1.47093 6.52241L1.5704 6.2241C1.58343 6.18547 1.63809 6.18547 1.65093 6.2241Z" fill="#F5F5F5"/>
<path d="M1.65093 8.75986L1.7504 9.05818L2.06484 9.06061C2.10553 9.06094 2.12245 9.11288 2.08968 9.13707L1.83674 9.32386L1.93157 9.62368C1.94385 9.66249 1.8997 9.6946 1.86651 9.67093L1.61067 9.48807L1.35482 9.67093C1.32173 9.69465 1.27753 9.66249 1.28976 9.62368L1.38459 9.32386L1.13165 9.13707C1.09893 9.11288 1.11576 9.06094 1.15649 9.06061L1.47093 9.05818L1.5704 8.75986C1.58343 8.72124 1.63809 8.72124 1.65093 8.75986Z" fill="#F5F5F5"/>
<path d="M1.65093 11.0673L1.7504 11.3656L2.06484 11.368C2.10553 11.3684 2.12245 11.4203 2.08968 11.4445L1.83674 11.6313L1.93157 11.9311C1.94385 11.9699 1.8997 12.002 1.86651 11.9784L1.61067 11.7955L1.35482 11.9784C1.32173 12.0021 1.27753 11.9699 1.28976 11.9311L1.38459 11.6313L1.13165 11.4445C1.09893 11.4203 1.11576 11.3683 1.15649 11.368L1.47093 11.3656L1.5704 11.0673C1.58343 11.0287 1.63809 11.0287 1.65093 11.0673Z" fill="#F5F5F5"/>
<path d="M2.86211 2.15409L2.96158 2.4524L3.27602 2.45484C3.31671 2.45517 3.33363 2.50711 3.30086 2.53129L3.04793 2.71809L3.14275 3.0179C3.15504 3.05672 3.11088 3.08883 3.07769 3.06515L2.82185 2.88229L2.566 3.06515C2.53291 3.08887 2.48871 3.05672 2.50094 3.0179L2.59577 2.71809L2.34283 2.53129C2.31011 2.50711 2.32694 2.45517 2.36768 2.45484L2.68211 2.4524L2.78158 2.15409C2.79461 2.11547 2.84927 2.11547 2.86211 2.15409Z" fill="#F5F5F5"/>
<path d="M2.86211 4.91404L2.96158 5.21235L3.27602 5.21479C3.31671 5.21512 3.33363 5.26706 3.30086 5.29124L3.04793 5.47804L3.14275 5.77785C3.15504 5.81666 3.11088 5.84877 3.07769 5.8251L2.82185 5.64224L2.566 5.8251C2.53291 5.84882 2.48871 5.81666 2.50094 5.77785L2.59577 5.47804L2.34283 5.29124C2.31011 5.26706 2.32694 5.21512 2.36768 5.21479L2.68211 5.21235L2.78158 4.91404C2.79461 4.87541 2.84927 4.87541 2.86211 4.91404Z" fill="#F5F5F5"/>
<path d="M2.86211 7.5362L2.96158 7.83451L3.27602 7.83695C3.31671 7.83727 3.33363 7.88921 3.30086 7.9134L3.04793 8.1002L3.14275 8.40001C3.15504 8.43882 3.11088 8.47093 3.07769 8.44726L2.82185 8.2644L2.566 8.44726C2.53291 8.47098 2.48871 8.43882 2.50094 8.40001L2.59577 8.1002L2.34283 7.9134C2.31011 7.88921 2.32694 7.83727 2.36768 7.83695L2.68211 7.83451L2.78158 7.5362C2.79461 7.49762 2.84927 7.49762 2.86211 7.5362Z" fill="#F5F5F5"/>
<path d="M2.86211 9.891L2.96158 10.1893L3.27602 10.1918C3.31671 10.1921 3.33363 10.244 3.30086 10.2682L3.04793 10.455L3.14275 10.7548C3.15504 10.7936 3.11088 10.8257 3.07769 10.8021L2.82185 10.6192L2.566 10.8021C2.53291 10.8258 2.48871 10.7936 2.50094 10.7548L2.59577 10.455L2.34283 10.2682C2.31011 10.244 2.32694 10.1921 2.36768 10.1918L2.68211 10.1893L2.78158 9.891C2.79461 9.85233 2.84927 9.85233 2.86211 9.891Z" fill="#F5F5F5"/>
<path d="M4.07342 0.975685L4.17289 1.274L4.48732 1.27644C4.52801 1.27676 4.54493 1.3287 4.51217 1.35289L4.25923 1.53969L4.35406 1.8395C4.36634 1.87831 4.32218 1.91042 4.289 1.88675L4.03315 1.70389L3.77731 1.88675C3.74421 1.91047 3.70001 1.87831 3.71225 1.8395L3.80707 1.53969L3.55414 1.35289C3.52142 1.3287 3.53825 1.27676 3.57898 1.27644L3.89342 1.274L3.99289 0.975685C4.00592 0.93706 4.06053 0.93706 4.07342 0.975685Z" fill="#F5F5F5"/>
<path d="M4.07342 3.46418L4.17289 3.7625L4.48732 3.76493C4.52801 3.76526 4.54493 3.8172 4.51217 3.84139L4.25923 4.02818L4.35406 4.328C4.36634 4.36681 4.32218 4.39892 4.289 4.37525L4.03315 4.19239L3.77731 4.37525C3.74421 4.39897 3.70001 4.36681 3.71225 4.328L3.80707 4.02818L3.55414 3.84139C3.52142 3.8172 3.53825 3.76526 3.57898 3.76493L3.89342 3.7625L3.99289 3.46418C4.00592 3.42551 4.06053 3.42551 4.07342 3.46418Z" fill="#F5F5F5"/>
<path d="M4.07342 6.2241L4.17289 6.52241L4.48732 6.52485C4.52801 6.52518 4.54493 6.57711 4.51217 6.60135L4.25923 6.78815L4.35406 7.08796C4.36634 7.12677 4.32218 7.15888 4.289 7.13521L4.03315 6.95235L3.77731 7.13521C3.74421 7.15893 3.70001 7.12677 3.71225 7.08796L3.80707 6.78815L3.55414 6.60135C3.52142 6.57716 3.53825 6.52518 3.57898 6.52485L3.89342 6.52241L3.99289 6.2241C4.00592 6.18547 4.06053 6.18547 4.07342 6.2241Z" fill="#F5F5F5"/>
<path d="M4.07345 8.75987L4.17291 9.05818L4.48735 9.06062C4.52804 9.06095 4.54496 9.11289 4.5122 9.13707L4.25926 9.32387L4.35409 9.62368C4.36637 9.6625 4.32221 9.6946 4.28902 9.67093L4.03327 9.48803L3.77743 9.67089C3.74434 9.6946 3.70013 9.66245 3.71237 9.62364L3.8072 9.32382L3.55426 9.13703C3.52154 9.11284 3.53837 9.0609 3.5791 9.06057L3.89354 9.05814L3.99301 8.75982C4.00595 8.72125 4.06056 8.72125 4.07345 8.75987Z" fill="#F5F5F5"/>
<path d="M4.07342 11.0673L4.17289 11.3656L4.48732 11.368C4.52801 11.3684 4.54493 11.4203 4.51217 11.4445L4.25923 11.6313L4.35406 11.9311C4.36634 11.9699 4.32218 12.002 4.289 11.9784L4.03315 11.7955L3.77731 11.9784C3.74421 12.0021 3.70001 11.9699 3.71225 11.9311L3.80707 11.6313L3.55414 11.4445C3.52142 11.4203 3.53825 11.3683 3.57898 11.368L3.89342 11.3656L3.99289 11.0673C4.00592 11.0287 4.06053 11.0287 4.07342 11.0673Z" fill="#F5F5F5"/>
<path d="M5.2846 2.15409L5.38407 2.4524L5.69851 2.45484C5.73919 2.45517 5.75612 2.50711 5.72335 2.53129L5.47041 2.71809L5.56524 3.0179C5.57752 3.05672 5.53336 3.08883 5.50018 3.06515L5.24433 2.88229L4.98849 3.06515C4.9554 3.08887 4.91119 3.05672 4.92343 3.0179L5.01826 2.71809L4.76532 2.53129C4.7326 2.50711 4.74943 2.45517 4.79016 2.45484L5.10474 2.4524L5.20421 2.15409C5.2171 2.11547 5.27171 2.11547 5.2846 2.15409Z" fill="#F5F5F5"/>
<path d="M5.2846 4.91404L5.38407 5.21235L5.69851 5.21479C5.73919 5.21512 5.75612 5.26706 5.72335 5.29124L5.47041 5.47804L5.56524 5.77785C5.57752 5.81666 5.53336 5.84877 5.50018 5.8251L5.24433 5.64224L4.98849 5.8251C4.9554 5.84882 4.91119 5.81666 4.92343 5.77785L5.01826 5.47804L4.76532 5.29124C4.7326 5.26706 4.74943 5.21512 4.79016 5.21479L5.1046 5.21235L5.20407 4.91404C5.2171 4.87541 5.27171 4.87541 5.2846 4.91404Z" fill="#F5F5F5"/>
<path d="M5.2846 7.5362L5.38407 7.83451L5.69851 7.83695C5.73919 7.83727 5.75612 7.88921 5.72335 7.9134L5.47041 8.1002L5.56524 8.40001C5.57752 8.43882 5.53336 8.47093 5.50018 8.44726L5.24433 8.2644L4.98849 8.44726C4.9554 8.47098 4.91119 8.43882 4.92343 8.40001L5.01826 8.1002L4.76532 7.9134C4.7326 7.88921 4.74943 7.83727 4.79016 7.83695L5.1046 7.83451L5.20407 7.5362C5.2171 7.49762 5.27171 7.49762 5.2846 7.5362Z" fill="#F5F5F5"/>
<path d="M5.2846 9.891L5.38407 10.1893L5.69851 10.1918C5.73919 10.1921 5.75612 10.244 5.72335 10.2682L5.47041 10.455L5.56524 10.7548C5.57752 10.7936 5.53336 10.8257 5.50018 10.8021L5.24433 10.6192L4.98849 10.8021C4.9554 10.8258 4.91119 10.7936 4.92343 10.7548L5.01826 10.455L4.76532 10.2682C4.7326 10.244 4.74943 10.1921 4.79016 10.1918L5.1046 10.1893L5.20407 9.891C5.2171 9.85233 5.27171 9.85233 5.2846 9.891Z" fill="#F5F5F5"/>
<path d="M6.49578 0.975685L6.59525 1.274L6.90969 1.27644C6.95038 1.27676 6.9673 1.3287 6.93453 1.35289L6.68159 1.53969L6.77642 1.8395C6.7887 1.87831 6.74455 1.91042 6.71136 1.88675L6.45552 1.70389L6.19967 1.88675C6.16658 1.91047 6.12237 1.87831 6.13461 1.8395L6.22944 1.53969L5.9765 1.35289C5.94378 1.3287 5.96061 1.27676 6.00134 1.27644L6.31578 1.274L6.41525 0.975685C6.42828 0.93706 6.48289 0.93706 6.49578 0.975685Z" fill="#F5F5F5"/>
<path d="M6.49578 3.46418L6.59525 3.7625L6.90969 3.76493C6.95038 3.76526 6.9673 3.8172 6.93453 3.84139L6.68159 4.02818L6.77642 4.328C6.7887 4.36681 6.74455 4.39892 6.71136 4.37525L6.45552 4.19239L6.19967 4.37525C6.16658 4.39897 6.12237 4.36681 6.13461 4.328L6.22944 4.02818L5.9765 3.84139C5.94378 3.8172 5.96061 3.76526 6.00134 3.76493L6.31578 3.7625L6.41525 3.46418C6.42828 3.42551 6.48289 3.42551 6.49578 3.46418Z" fill="#F5F5F5"/>
<path d="M6.49578 6.2241L6.59525 6.52241L6.90969 6.52485C6.95038 6.52518 6.9673 6.57711 6.93453 6.60135L6.68159 6.78815L6.77642 7.08796C6.7887 7.12677 6.74455 7.15888 6.71136 7.13521L6.45552 6.95235L6.19967 7.13521C6.16658 7.15893 6.12237 7.12677 6.13461 7.08796L6.22944 6.78815L5.9765 6.60135C5.94378 6.57716 5.96061 6.52518 6.00134 6.52485L6.31578 6.52241L6.41525 6.2241C6.42828 6.18547 6.48289 6.18547 6.49578 6.2241Z" fill="#F5F5F5"/>
<path d="M6.49578 8.75986L6.59525 9.05818L6.90969 9.06061C6.95038 9.06094 6.9673 9.11288 6.93453 9.13707L6.68159 9.32386L6.77642 9.62368C6.7887 9.66249 6.74455 9.6946 6.71136 9.67093L6.45552 9.48807L6.19967 9.67093C6.16658 9.69465 6.12237 9.66249 6.13461 9.62368L6.22944 9.32386L5.9765 9.13707C5.94378 9.11288 5.96061 9.06094 6.00134 9.06061L6.31578 9.05818L6.41525 8.75986C6.42828 8.72124 6.48289 8.72124 6.49578 8.75986Z" fill="#F5F5F5"/>
<path d="M6.49578 11.0673L6.59525 11.3656L6.90969 11.368C6.95038 11.3684 6.9673 11.4203 6.93453 11.4445L6.68159 11.6313L6.77642 11.9311C6.7887 11.9699 6.74455 12.002 6.71136 11.9784L6.45552 11.7955L6.19967 11.9784C6.16658 12.0021 6.12237 11.9699 6.13461 11.9311L6.22944 11.6313L5.9765 11.4445C5.94378 11.4203 5.96061 11.3683 6.00134 11.368L6.31578 11.3656L6.41525 11.0673C6.42828 11.0287 6.48289 11.0287 6.49578 11.0673Z" fill="#F5F5F5"/>
<path d="M7.70696 2.15409L7.80643 2.4524L8.12087 2.45484C8.16156 2.45517 8.17848 2.50711 8.14571 2.53129L7.89278 2.71809L7.98761 3.0179C7.99989 3.05672 7.95573 3.08883 7.92254 3.06515L7.6667 2.88229L7.41086 3.06515C7.37776 3.08887 7.33356 3.05672 7.34579 3.0179L7.44062 2.71809L7.18768 2.53129C7.15497 2.50711 7.17179 2.45517 7.21248 2.45484L7.52692 2.4524L7.62639 2.15409C7.63946 2.11547 7.69407 2.11547 7.70696 2.15409Z" fill="#F5F5F5"/>
<path d="M7.70696 4.91404L7.80643 5.21235L8.12087 5.21479C8.16156 5.21512 8.17848 5.26706 8.14571 5.29124L7.89278 5.47804L7.98761 5.77785C7.99989 5.81666 7.95573 5.84877 7.92254 5.8251L7.6667 5.64224L7.41086 5.8251C7.37776 5.84882 7.33356 5.81666 7.34579 5.77785L7.44062 5.47804L7.18768 5.29124C7.15497 5.26706 7.17179 5.21512 7.21248 5.21479L7.52692 5.21235L7.62639 4.91404C7.63946 4.87541 7.69407 4.87541 7.70696 4.91404Z" fill="#F5F5F5"/>
<path d="M7.70696 7.5362L7.80643 7.83451L8.12087 7.83695C8.16156 7.83727 8.17848 7.88921 8.14571 7.9134L7.89278 8.1002L7.98761 8.40001C7.99989 8.43882 7.95573 8.47093 7.92254 8.44726L7.6667 8.2644L7.41086 8.44726C7.37776 8.47098 7.33356 8.43882 7.34579 8.40001L7.44062 8.1002L7.18768 7.9134C7.15497 7.88921 7.17179 7.83727 7.21248 7.83695L7.52692 7.83451L7.62639 7.5362C7.63946 7.49762 7.69407 7.49762 7.70696 7.5362Z" fill="#F5F5F5"/>
<path d="M7.70696 9.891L7.80643 10.1893L8.12087 10.1918C8.16156 10.1921 8.17848 10.244 8.14571 10.2682L7.89278 10.455L7.98761 10.7548C7.99989 10.7936 7.95573 10.8257 7.92254 10.8021L7.6667 10.6192L7.41086 10.8021C7.37776 10.8258 7.33356 10.7936 7.34579 10.7548L7.44062 10.455L7.18768 10.2682C7.15497 10.244 7.17179 10.1921 7.21248 10.1918L7.52692 10.1893L7.62639 9.891C7.63946 9.85233 7.69407 9.85233 7.70696 9.891Z" fill="#F5F5F5"/>
<path d="M8.91814 0.975685L9.01761 1.274L9.33205 1.27644C9.37274 1.27676 9.38966 1.3287 9.35689 1.35289L9.10396 1.53969L9.19879 1.8395C9.21107 1.87831 9.16691 1.91042 9.13372 1.88675L8.87788 1.70389L8.62204 1.88675C8.58894 1.91047 8.54474 1.87831 8.55697 1.8395L8.6518 1.53969L8.39886 1.35289C8.36614 1.3287 8.38297 1.27676 8.42371 1.27644L8.73814 1.274L8.83761 0.975685C8.85064 0.93706 8.90525 0.93706 8.91814 0.975685Z" fill="#F5F5F5"/>
<path d="M8.91814 3.46418L9.01761 3.7625L9.33205 3.76493C9.37274 3.76526 9.38966 3.8172 9.35689 3.84139L9.10396 4.02818L9.19879 4.328C9.21107 4.36681 9.16691 4.39892 9.13372 4.37525L8.87788 4.19239L8.62204 4.37525C8.58894 4.39897 8.54474 4.36681 8.55697 4.328L8.6518 4.02818L8.39886 3.84139C8.36614 3.8172 8.38297 3.76526 8.42371 3.76493L8.73814 3.7625L8.83761 3.46418C8.85064 3.42551 8.90525 3.42551 8.91814 3.46418Z" fill="#F5F5F5"/>
<path d="M8.91814 6.2241L9.01761 6.52241L9.33205 6.52485C9.37274 6.52518 9.38966 6.57711 9.35689 6.60135L9.10396 6.78815L9.19879 7.08796C9.21107 7.12677 9.16691 7.15888 9.13372 7.13521L8.87788 6.95235L8.62204 7.13521C8.58894 7.15893 8.54474 7.12677 8.55697 7.08796L8.6518 6.78815L8.39886 6.60135C8.36614 6.57716 8.38297 6.52518 8.42371 6.52485L8.73814 6.52241L8.83761 6.2241C8.85064 6.18547 8.90525 6.18547 8.91814 6.2241Z" fill="#F5F5F5"/>
<path d="M8.91814 8.75986L9.01761 9.05818L9.33205 9.06061C9.37274 9.06094 9.38966 9.11288 9.35689 9.13707L9.10396 9.32386L9.19879 9.62368C9.21107 9.66249 9.16691 9.6946 9.13372 9.67093L8.87788 9.48807L8.62204 9.67093C8.58894 9.69465 8.54474 9.66249 8.55697 9.62368L8.6518 9.32386L8.39886 9.13707C8.36614 9.11288 8.38297 9.06094 8.42371 9.06061L8.73814 9.05818L8.83761 8.75986C8.85064 8.72124 8.90525 8.72124 8.91814 8.75986Z" fill="#F5F5F5"/>
<path d="M8.91814 11.0673L9.01761 11.3656L9.33205 11.368C9.37274 11.3684 9.38966 11.4203 9.35689 11.4445L9.10396 11.6313L9.19879 11.9311C9.21107 11.9699 9.16691 12.002 9.13372 11.9784L8.87788 11.7955L8.62204 11.9784C8.58894 12.0021 8.54474 11.9699 8.55697 11.9311L8.6518 11.6313L8.39886 11.4445C8.36614 11.4203 8.38297 11.3683 8.42371 11.368L8.73814 11.3656L8.83761 11.0673C8.85064 11.0287 8.90525 11.0287 8.91814 11.0673Z" fill="#F5F5F5"/>
<path d="M10.1294 2.15409L10.2289 2.4524L10.5434 2.45484C10.584 2.45517 10.601 2.50711 10.5682 2.53129L10.3153 2.71809L10.4101 3.0179C10.4224 3.05672 10.3782 3.08883 10.345 3.06515L10.0892 2.88229L9.83334 3.06515C9.80024 3.08887 9.75604 3.05672 9.76828 3.0179L9.8631 2.71809L9.61017 2.53129C9.57745 2.50711 9.59428 2.45517 9.63501 2.45484L9.94945 2.4524L10.0489 2.15409C10.0619 2.11547 10.1166 2.11547 10.1294 2.15409Z" fill="#F5F5F5"/>
<path d="M10.1294 4.91404L10.2289 5.21235L10.5434 5.21479C10.584 5.21512 10.601 5.26706 10.5682 5.29124L10.3153 5.47804L10.4101 5.77785C10.4224 5.81666 10.3782 5.84877 10.345 5.8251L10.0892 5.64224L9.83334 5.8251C9.80024 5.84882 9.75604 5.81666 9.76828 5.77785L9.8631 5.47804L9.61017 5.29124C9.57745 5.26706 9.59428 5.21512 9.63501 5.21479L9.94945 5.21235L10.0489 4.91404C10.0619 4.87541 10.1166 4.87541 10.1294 4.91404Z" fill="#F5F5F5"/>
<path d="M10.1294 7.5362L10.2289 7.83451L10.5434 7.83695C10.584 7.83727 10.601 7.88921 10.5682 7.9134L10.3153 8.1002L10.4101 8.40001C10.4224 8.43882 10.3782 8.47093 10.345 8.44726L10.0892 8.2644L9.83334 8.44726C9.80024 8.47098 9.75604 8.43882 9.76828 8.40001L9.8631 8.1002L9.61017 7.9134C9.57745 7.88921 9.59428 7.83727 9.63501 7.83695L9.94945 7.83451L10.0489 7.5362C10.0619 7.49762 10.1166 7.49762 10.1294 7.5362Z" fill="#F5F5F5"/>
<path d="M10.1294 9.891L10.2289 10.1893L10.5434 10.1918C10.584 10.1921 10.601 10.244 10.5682 10.2682L10.3153 10.455L10.4101 10.7548C10.4224 10.7936 10.3782 10.8257 10.345 10.8021L10.0892 10.6192L9.83334 10.8021C9.80024 10.8258 9.75604 10.7936 9.76828 10.7548L9.8631 10.455L9.61017 10.2682C9.57745 10.244 9.59428 10.1921 9.63501 10.1918L9.94945 10.1893L10.0489 9.891C10.0619 9.85233 10.1166 9.85233 10.1294 9.891Z" fill="#F5F5F5"/>
<path d="M11.3406 0.975685L11.4401 1.274L11.7545 1.27644C11.7952 1.27676 11.8121 1.3287 11.7794 1.35289L11.5264 1.53969L11.6213 1.8395C11.6336 1.87831 11.5894 1.91042 11.5562 1.88675L11.3004 1.70389L11.0445 1.88675C11.0114 1.91047 10.9672 1.87831 10.9795 1.8395L11.0743 1.53969L10.8213 1.35289C10.7886 1.3287 10.8055 1.27676 10.8462 1.27644L11.1606 1.274L11.2601 0.975685C11.2731 0.93706 11.3277 0.93706 11.3406 0.975685Z" fill="#F5F5F5"/>
<path d="M11.3406 3.46418L11.4401 3.7625L11.7545 3.76493C11.7952 3.76526 11.8121 3.8172 11.7794 3.84139L11.5264 4.02818L11.6213 4.328C11.6336 4.36681 11.5894 4.39892 11.5562 4.37525L11.3004 4.19239L11.0445 4.37525C11.0114 4.39897 10.9672 4.36681 10.9795 4.328L11.0743 4.02818L10.8213 3.84139C10.7886 3.8172 10.8055 3.76526 10.8462 3.76493L11.1606 3.7625L11.2601 3.46418C11.2731 3.42551 11.3277 3.42551 11.3406 3.46418Z" fill="#F5F5F5"/>
<path d="M11.3406 6.2241L11.4401 6.52241L11.7545 6.52485C11.7952 6.52518 11.8121 6.57711 11.7794 6.60135L11.5264 6.78815L11.6213 7.08796C11.6336 7.12677 11.5894 7.15888 11.5562 7.13521L11.3004 6.95235L11.0445 7.13521C11.0114 7.15893 10.9672 7.12677 10.9795 7.08796L11.0743 6.78815L10.8213 6.60135C10.7886 6.57716 10.8055 6.52518 10.8462 6.52485L11.1606 6.52241L11.2601 6.2241C11.2731 6.18547 11.3277 6.18547 11.3406 6.2241Z" fill="#F5F5F5"/>
<path d="M11.3406 8.75986L11.4401 9.05818L11.7545 9.06061C11.7952 9.06094 11.8121 9.11288 11.7794 9.13707L11.5264 9.32386L11.6213 9.62368C11.6336 9.66249 11.5894 9.6946 11.5562 9.67093L11.3004 9.48807L11.0445 9.67093C11.0114 9.69465 10.9672 9.66249 10.9795 9.62368L11.0743 9.32386L10.8213 9.13707C10.7886 9.11288 10.8055 9.06094 10.8462 9.06061L11.1606 9.05818L11.2601 8.75986C11.2731 8.72124 11.3277 8.72124 11.3406 8.75986Z" fill="#F5F5F5"/>
<path d="M11.3406 11.0673L11.4401 11.3656L11.7545 11.368C11.7952 11.3684 11.8121 11.4203 11.7794 11.4445L11.5264 11.6313L11.6213 11.9311C11.6336 11.9699 11.5894 12.002 11.5562 11.9784L11.3004 11.7955L11.0445 11.9784C11.0114 12.0021 10.9672 11.9699 10.9795 11.9311L11.0743 11.6313L10.8213 11.4445C10.7886 11.4203 10.8055 11.3683 10.8462 11.368L11.1606 11.3656L11.2601 11.0673C11.2731 11.0287 11.3277 11.0287 11.3406 11.0673Z" fill="#F5F5F5"/>
</g>
<defs>
<clipPath id="clip0_1826_35093">
<rect width="24" height="24" fill="white"/>
</clipPath>
</defs>
</svg>
